<svg xmlns="http://www.w3.org/2000/svg" xmlns:xlink="http://www.w3.org/1999/xlink" xmlns:inkscape="http://www.inkscape.org/namespaces/inkscape" version="1.1" width="555" height="364.49839" viewBox="0 0 555 364.49839">
<defs>
<clipPath id="clip_0">
<path d="M0 0H555V364.49839H0Z"/>
</clipPath>
<mask id="mask_1">
<g>
<clipPath id="clip_2">
<path transform="matrix(40.485475,0,0,40.485475,79.86025,224.31934)" d="M-1.972566-5.540735H11.736054V3.462453H-1.972566Z"/>
</clipPath>
<g clip-path="url(#clip_2)">
<path transform="matrix(40.485475,0,0,40.485475,79.86025,224.31934)" d="M0-3.976846H6.903829V-.25H0Z" fill="#ffffff"/>
</g>
</g>
"/>
</mask>
<clipPath id="clip_3">
<path transform="matrix(40.485475,0,0,40.485475,79.86025,224.31934)" d="M-1.972566-5.540735H11.736054V3.462453H-1.972566Z"/>
</clipPath>
<mask id="mask_4">
<g>
<clipPath id="clip_5">
<path transform="matrix(40.485475,0,0,40.485475,79.86025,224.31934)" d="M-1.972566-5.540735H11.736054V3.462453H-1.972566Z"/>
</clipPath>
<g clip-path="url(#clip_5)">
<path transform="matrix(40.485475,0,0,40.485475,79.86025,224.31934)" d="M0-3.976846H6.903829V-.25H0Z" fill="#ffffff"/>
</g>
</g>
"/>
</mask>
<clipPath id="clip_6">
<path transform="matrix(40.485475,0,0,40.485475,79.86025,224.31934)" d="M-1.972566-5.540735H11.736054V3.462453H-1.972566Z"/>
</clipPath>
<mask id="mask_7">
<g>
<clipPath id="clip_8">
<path transform="matrix(40.485475,0,0,40.485475,79.86025,224.31934)" d="M-1.972566-5.540735H11.736054V3.462453H-1.972566Z"/>
</clipPath>
<g clip-path="url(#clip_8)">
<path transform="matrix(40.485475,0,0,40.485475,79.86025,224.31934)" d="M0-3.976846H6.903829V-.25H0Z" fill="#ffffff"/>
</g>
</g>
"/>
</mask>
<clipPath id="clip_9">
<path transform="matrix(40.485475,0,0,40.485475,79.86025,224.31934)" d="M-1.972566-5.540735H11.736054V3.462453H-1.972566Z"/>
</clipPath>
</defs>
<g>
<g clip-path="url(#clip_0)">
<g mask="url(#mask_1)">
<g>
<g clip-path="url(#clip_3)">
<g mask="url(#mask_4)">
<g>
<g clip-path="url(#clip_6)">
<path transform="matrix(40.485475,0,0,40.485475,79.86025,224.31934)" d="M2.711922-3.976846H5.315337L2.603416-1.471917H0Z" fill="#006fbf"/>
</g>
</g>
</g>
<g mask="url(#mask_7)">
<g>
<g clip-path="url(#clip_9)">
<path transform="matrix(40.485475,0,0,40.485475,79.86025,224.31934)" d="M4.300413-2.754929H6.903829L4.191907-.25H1.588492Z" fill="#ff8080"/>
</g>
</g>
</g>
</g>
</g>
</g>
<path transform="matrix(40.485475,0,0,40.485475,79.86025,224.31934)" d="M.1335 .26025C.1795 .17875 .24225 .115 .32175 .069 .40125 .023 .4895 0 .5865 0 .7005 0 .8 .0275 .885 .0825 .97 .1375 1.032 .2155 1.071 .3165H.9075C.8785 .2535 .83675 .205 .78225 .171 .72775 .137 .6625 .12 .5865 .12 .5135 .12 .448 .137 .39 .171 .332 .205 .2865 .25325 .2535 .31575 .2205 .37825 .204 .4515 .204 .5355 .204 .6185 .2205 .69125 .2535 .75375 .2865 .81625 .332 .8645 .39 .8985 .448 .9325 .5135 .9495 .5865 .9495 .6625 .9495 .72775 .93275 .78225 .89925 .83675 .86575 .8785 .8175 .9075 .7545H1.071C1.032 .8545 .97 .93175 .885 .98625 .8 1.04075 .7005 1.068 .5865 1.068 .4895 1.068 .40125 1.04525 .32175 .99975 .24225 .95425 .1795 .891 .1335 .81 .0875 .729 .0645 .6375 .0645 .5355 .0645 .4335 .0875 .34175 .1335 .26025M1.405459 .1245V.474H1.786459V.5865H1.405459V.9465H1.831459V1.059H1.268959V.012H1.831459V.1245H1.405459M2.85596 1.059H2.71946L2.17046 .2265V1.059H2.03396V.012H2.17046L2.71946 .843V.012H2.85596V1.059M3.727464 .0135V.1245H3.442464V1.059H3.305964V.1245H3.019464V.0135H3.727464M4.441488 1.059 4.192488 .6315H4.027488V1.059H3.890988V.0135H4.228488C4.307488 .0135 4.374238 .027 4.428738 .054 4.483238 .081 4.523988 .1175 4.550988 .1635 4.577988 .2095 4.591488 .262 4.591488 .321 4.591488 .393 4.570738 .4565 4.529238 .5115 4.487738 .5665 4.425488 .603 4.342488 .621L4.604988 1.059H4.441488M4.027488 .522H4.228488C4.302488 .522 4.357988 .50375 4.394988 .46725 4.431988 .43075 4.450488 .382 4.450488 .321 4.450488 .259 4.432238 .211 4.395738 .177 4.359238 .143 4.303488 .126 4.228488 .126H4.027488V.522M5.416444 .8265H4.960444L4.876444 1.059H4.732444L5.110444 .0195H5.267944L5.644444 1.059H5.500444L5.416444 .8265M5.377444 .7155 5.188444 .1875 4.999444 .7155H5.377444M5.941461 .948H6.307461V1.059H5.804961V.0135H5.941461V.948M7.435515 .0135V.1245H6.981015V.477H7.350015V.588H6.981015V1.059H6.844515V.0135H7.435515M8.214057 .8265H7.758057L7.674057 1.059H7.530057L7.908057 .0195H8.065557L8.442057 1.059H8.298057L8.214057 .8265M8.175057 .7155 7.986057 .1875 7.797057 .7155H8.175057M8.739074 .0135V1.059H8.602574V.0135H8.739074M9.517531 1.059 9.268531 .6315H9.103531V1.059H8.967031V.0135H9.304531C9.383531 .0135 9.450281 .027 9.504781 .054 9.559281 .081 9.600031 .1175 9.627031 .1635 9.654031 .2095 9.667531 .262 9.667531 .321 9.667531 .393 9.646781 .4565 9.605281 .5115 9.563781 .5665 9.501531 .603 9.418531 .621L9.681031 1.059H9.517531M9.103531 .522H9.304531C9.378531 .522 9.434031 .50375 9.471031 .46725 9.508031 .43075 9.526531 .382 9.526531 .321 9.526531 .259 9.508281 .211 9.471781 .177 9.435281 .143 9.379531 .126 9.304531 .126H9.103531V.522" fill="#343432"/>
<path transform="matrix(40.485475,0,0,40.485475,79.86025,224.31934)" d="M.212727 1.898564C.173182 1.898564 .14 1.892427 .113182 1.880155 .086364 1.867882 .065795 1.852086 .051477 1.832768 .037159 1.81345 .029545 1.793109 .028636 1.771745 .028636 1.768109 .030114 1.764814 .033068 1.761859 .036023 1.758905 .039545 1.757427 .043636 1.757427H.078409C.083864 1.757427 .087955 1.758791 .090682 1.761518 .093409 1.764245 .095227 1.767427 .096136 1.771064 .098864 1.781973 .104545 1.792768 .113182 1.80345 .121818 1.814132 .134205 1.822995 .150341 1.830041 .166477 1.837086 .187273 1.840609 .212727 1.840609 .251818 1.840609 .280568 1.833677 .298977 1.819814 .317386 1.80595 .326591 1.787427 .326591 1.764245 .326591 1.748336 .321705 1.735495 .311932 1.725723 .302159 1.71595 .287273 1.7072 .267273 1.699473 .247273 1.691745 .221364 1.683336 .189545 1.674245 .156364 1.6647 .128864 1.654245 .107045 1.642882 .085227 1.631518 .068977 1.617427 .058295 1.600609 .047614 1.583791 .042273 1.562427 .042273 1.536518 .042273 1.511973 .048864 1.490041 .062045 1.470723 .075227 1.451405 .094318 1.436064 .119318 1.4247 .144318 1.413336 .174318 1.407655 .209318 1.407655 .2375 1.407655 .262159 1.411405 .283295 1.418905 .304432 1.426405 .322045 1.436405 .336136 1.448905 .350227 1.461405 .360909 1.474814 .368182 1.489132 .375455 1.50345 .379318 1.517427 .379773 1.531064 .379773 1.534245 .378636 1.537314 .376364 1.540268 .374091 1.543223 .370455 1.5447 .365455 1.5447H.329318C.326136 1.5447 .322841 1.543791 .319432 1.541973 .316023 1.540155 .313409 1.536745 .311591 1.531745 .308864 1.513109 .298409 1.497427 .280227 1.4847 .262045 1.471973 .238409 1.465609 .209318 1.465609 .179773 1.465609 .155795 1.471291 .137386 1.482655 .118977 1.494018 .109773 1.511745 .109773 1.535836 .109773 1.551291 .114091 1.564132 .122727 1.574359 .131364 1.584586 .145 1.593564 .163636 1.601291 .182273 1.609018 .206591 1.6172 .236591 1.625836 .272955 1.635836 .302727 1.646405 .325909 1.657541 .349091 1.668677 .36625 1.682541 .377386 1.699132 .388523 1.715723 .394091 1.736973 .394091 1.762882 .394091 1.791518 .386591 1.81595 .371591 1.836177 .356591 1.856405 .335568 1.871859 .308523 1.882541 .281477 1.893223 .249545 1.898564 .212727 1.898564M.499097 1.891745C.494097 1.891745 .490234 1.890268 .487506 1.887314 .484779 1.884359 .483415 1.880609 .483415 1.876064V1.430836C.483415 1.425836 .484779 1.421859 .487506 1.418905 .490234 1.41595 .494097 1.414473 .499097 1.414473H.53387C.53887 1.414473 .542847 1.41595 .545802 1.418905 .548756 1.421859 .550234 1.425836 .550234 1.430836V1.619018H.784779V1.430836C.784779 1.425836 .786256 1.421859 .789211 1.418905 .792165 1.41595 .795915 1.414473 .800461 1.414473H.835234C.840234 1.414473 .844211 1.41595 .847165 1.418905 .85012 1.421859 .851597 1.425836 .851597 1.430836V1.876064C.851597 1.880609 .85012 1.884359 .847165 1.887314 .844211 1.890268 .840234 1.891745 .835234 1.891745H.800461C.795915 1.891745 .792165 1.890268 .789211 1.887314 .786256 1.884359 .784779 1.880609 .784779 1.876064V1.680382H.550234V1.876064C.550234 1.880609 .548756 1.884359 .545802 1.887314 .542847 1.890268 .53887 1.891745 .53387 1.891745H.499097M1.142044 1.898564C1.102954 1.898564 1.069544 1.891859 1.041817 1.87845 1.01409 1.865041 .992726 1.844359 .977726 1.816405 .962726 1.78845 .954317 1.753336 .952499 1.711064 .952044 1.691064 .951817 1.671859 .951817 1.65345 .951817 1.635041 .952044 1.615836 .952499 1.595836 .954317 1.554018 .963067 1.519132 .978749 1.491177 .994431 1.463223 1.016249 1.442314 1.044204 1.42845 1.072158 1.414586 1.104772 1.407655 1.142044 1.407655 1.178863 1.407655 1.211249 1.414586 1.239204 1.42845 1.267158 1.442314 1.28909 1.463223 1.304999 1.491177 1.320908 1.519132 1.329544 1.554018 1.330908 1.595836 1.331817 1.615836 1.332272 1.635041 1.332272 1.65345 1.332272 1.671859 1.331817 1.691064 1.330908 1.711064 1.329544 1.753336 1.321249 1.78845 1.306022 1.816405 1.290794 1.844359 1.269317 1.865041 1.24159 1.87845 1.213863 1.891859 1.180681 1.898564 1.142044 1.898564M1.142044 1.840609C1.17659 1.840609 1.204885 1.830155 1.226931 1.809245 1.248976 1.788336 1.260908 1.754473 1.262726 1.707655 1.263635 1.6872 1.26409 1.668905 1.26409 1.652768 1.26409 1.636632 1.263635 1.618564 1.262726 1.598564 1.261817 1.5672 1.256022 1.541745 1.24534 1.5222 1.234658 1.502655 1.220454 1.488336 1.202726 1.479245 1.184999 1.470155 1.164772 1.465609 1.142044 1.465609 1.119317 1.465609 1.09909 1.470155 1.081363 1.479245 1.063635 1.488336 1.049431 1.502655 1.038749 1.5222 1.028067 1.541745 1.022044 1.5672 1.020681 1.598564 1.020226 1.618564 1.019999 1.636632 1.019999 1.652768 1.019999 1.668905 1.020226 1.6872 1.020681 1.707655 1.022499 1.754473 1.034544 1.788336 1.056817 1.809245 1.07909 1.830155 1.107499 1.840609 1.142044 1.840609M1.4475 1.891745C1.4425 1.891745 1.438637 1.890268 1.435909 1.887314 1.433182 1.884359 1.431819 1.880609 1.431819 1.876064V1.430836C1.431819 1.425836 1.433182 1.421859 1.435909 1.418905 1.438637 1.41595 1.4425 1.414473 1.4475 1.414473H1.620682C1.654319 1.414473 1.683523 1.419927 1.708296 1.430836 1.733069 1.441745 1.752273 1.457995 1.765909 1.479586 1.779546 1.501177 1.786364 1.528109 1.786364 1.560382 1.786364 1.592655 1.779546 1.619473 1.765909 1.640836 1.752273 1.6622 1.733069 1.678336 1.708296 1.689245 1.683523 1.700155 1.654319 1.705609 1.620682 1.705609H1.5V1.876064C1.5 1.880609 1.498523 1.884359 1.495569 1.887314 1.492614 1.890268 1.488637 1.891745 1.483637 1.891745H1.4475M1.499319 1.648336H1.617273C1.650909 1.648336 1.676137 1.640836 1.692955 1.625836 1.709773 1.610836 1.718182 1.589018 1.718182 1.560382 1.718182 1.5322 1.71 1.510382 1.693637 1.494927 1.677273 1.479473 1.651819 1.471745 1.617273 1.471745H1.499319V1.648336M1.885247 1.891745C1.880247 1.891745 1.876384 1.890268 1.873656 1.887314 1.870929 1.884359 1.869565 1.880609 1.869565 1.876064V1.430836C1.869565 1.425836 1.870929 1.421859 1.873656 1.418905 1.876384 1.41595 1.880247 1.414473 1.885247 1.414473H2.058429C2.092065 1.414473 2.12127 1.419927 2.146043 1.430836 2.170815 1.441745 2.19002 1.457995 2.203656 1.479586 2.217293 1.501177 2.224111 1.528109 2.224111 1.560382 2.224111 1.592655 2.217293 1.619473 2.203656 1.640836 2.19002 1.6622 2.170815 1.678336 2.146043 1.689245 2.12127 1.700155 2.092065 1.705609 2.058429 1.705609H1.937747V1.876064C1.937747 1.880609 1.93627 1.884359 1.933315 1.887314 1.930361 1.890268 1.926384 1.891745 1.921384 1.891745H1.885247M1.937065 1.648336H2.05502C2.088656 1.648336 2.113884 1.640836 2.130702 1.625836 2.14752 1.610836 2.155929 1.589018 2.155929 1.560382 2.155929 1.5322 2.147747 1.510382 2.131384 1.494927 2.11502 1.479473 2.089565 1.471745 2.05502 1.471745H1.937065V1.648336M2.322994 1.891745C2.317994 1.891745 2.314131 1.890268 2.311403 1.887314 2.308676 1.884359 2.307312 1.880609 2.307312 1.876064V1.430155C2.307312 1.425609 2.308676 1.421859 2.311403 1.418905 2.314131 1.41595 2.317994 1.414473 2.322994 1.414473H2.359131C2.364131 1.414473 2.367994 1.41595 2.370721 1.418905 2.373449 1.421859 2.374812 1.425609 2.374812 1.430155V1.876064C2.374812 1.880609 2.373449 1.884359 2.370721 1.887314 2.367994 1.890268 2.364131 1.891745 2.359131 1.891745H2.322994M2.509138 1.891745C2.504138 1.891745 2.500274 1.890268 2.497547 1.887314 2.494819 1.884359 2.493456 1.880609 2.493456 1.876064V1.430836C2.493456 1.425836 2.494819 1.421859 2.497547 1.418905 2.500274 1.41595 2.504138 1.414473 2.509138 1.414473H2.540501C2.545956 1.414473 2.550047 1.415723 2.552774 1.418223 2.555501 1.420723 2.557092 1.422655 2.557547 1.424018L2.78391 1.771745V1.430836C2.78391 1.425836 2.785274 1.421859 2.788001 1.418905 2.790728 1.41595 2.794592 1.414473 2.799592 1.414473H2.832319C2.837319 1.414473 2.841297 1.41595 2.844251 1.418905 2.847206 1.421859 2.848683 1.425836 2.848683 1.430836V1.875382C2.848683 1.879927 2.847206 1.883791 2.844251 1.886973 2.841297 1.890155 2.837547 1.891745 2.833001 1.891745H2.800274C2.795274 1.891745 2.791524 1.890382 2.789024 1.887655 2.786524 1.884927 2.784819 1.883109 2.78391 1.8822L2.558228 1.537882V1.876064C2.558228 1.880609 2.556751 1.884359 2.553797 1.887314 2.550842 1.890268 2.546865 1.891745 2.541865 1.891745H2.509138M3.141188 1.898564C3.100733 1.898564 3.066529 1.891064 3.038574 1.876064 3.01062 1.861064 2.989256 1.839927 2.974483 1.812655 2.959711 1.785382 2.951415 1.753336 2.949597 1.716518 2.949143 1.696518 2.948915 1.675268 2.948915 1.652768 2.948915 1.630268 2.949143 1.608791 2.949597 1.588336 2.951415 1.551518 2.959711 1.519586 2.974483 1.492541 2.989256 1.465495 3.010733 1.444586 3.038915 1.429814 3.067097 1.415041 3.101188 1.407655 3.141188 1.407655 3.173006 1.407655 3.200733 1.4122 3.22437 1.421291 3.248006 1.430382 3.267438 1.441859 3.282665 1.455723 3.297893 1.469586 3.309256 1.484018 3.316756 1.499018 3.324256 1.514018 3.328233 1.5272 3.328688 1.538564 3.329143 1.542655 3.328006 1.54595 3.325279 1.54845 3.322552 1.55095 3.318915 1.5522 3.31437 1.5522H3.274143C3.269597 1.5522 3.266302 1.551291 3.264256 1.549473 3.262211 1.547655 3.260279 1.544473 3.258461 1.539927 3.25437 1.528109 3.247665 1.516518 3.238347 1.505155 3.229029 1.493791 3.216529 1.484359 3.200847 1.476859 3.185165 1.469359 3.165279 1.465609 3.141188 1.465609 3.104824 1.465609 3.07562 1.475382 3.053574 1.494927 3.031529 1.514473 3.019597 1.546745 3.017779 1.591745 3.016415 1.6322 3.016415 1.672655 3.017779 1.713109 3.019597 1.758564 3.031643 1.791177 3.053915 1.81095 3.076188 1.830723 3.105279 1.840609 3.141188 1.840609 3.165279 1.840609 3.186756 1.836064 3.20562 1.826973 3.224483 1.817882 3.23937 1.804132 3.250279 1.785723 3.261188 1.767314 3.266643 1.743791 3.266643 1.715155V1.686518H3.16437C3.159824 1.686518 3.156074 1.685041 3.15312 1.682086 3.150165 1.679132 3.148688 1.675155 3.148688 1.670155V1.648336C3.148688 1.643336 3.150165 1.639359 3.15312 1.636405 3.156074 1.63345 3.159824 1.631973 3.16437 1.631973H3.318461C3.323461 1.631973 3.327324 1.63345 3.330052 1.636405 3.332779 1.639359 3.334143 1.643336 3.334143 1.648336V1.713791C3.334143 1.751064 3.326529 1.783564 3.311302 1.811291 3.296074 1.839018 3.273915 1.860495 3.244824 1.875723 3.215733 1.89095 3.181188 1.898564 3.141188 1.898564M3.770482 1.898564C3.728664 1.898564 3.694005 1.890836 3.666505 1.875382 3.639005 1.859927 3.618209 1.838336 3.604118 1.810609 3.590027 1.782882 3.5823 1.750609 3.580936 1.713791 3.580482 1.695155 3.580255 1.675155 3.580255 1.653791 3.580255 1.632427 3.580482 1.611973 3.580936 1.592427 3.5823 1.555609 3.590027 1.523336 3.604118 1.495609 3.618209 1.467882 3.639005 1.446291 3.666505 1.430836 3.694005 1.415382 3.728664 1.407655 3.770482 1.407655 3.801845 1.407655 3.829345 1.411973 3.852982 1.420609 3.876618 1.429245 3.896277 1.440836 3.911959 1.455382 3.927641 1.469927 3.939573 1.486177 3.947755 1.504132 3.955936 1.522086 3.960482 1.540609 3.961391 1.5597 3.961845 1.563791 3.960595 1.5672 3.957641 1.569927 3.954686 1.572655 3.951164 1.574018 3.947073 1.574018H3.909573C3.905482 1.574018 3.901959 1.572882 3.899005 1.570609 3.89605 1.568336 3.893891 1.564245 3.892527 1.558336 3.8848 1.522882 3.870368 1.498564 3.849232 1.485382 3.828095 1.4722 3.801845 1.465609 3.770482 1.465609 3.733664 1.465609 3.704573 1.47595 3.683209 1.496632 3.661845 1.517314 3.650482 1.550382 3.649118 1.595836 3.647755 1.633109 3.647755 1.671291 3.649118 1.710382 3.650482 1.755836 3.661845 1.788905 3.683209 1.809586 3.704573 1.830268 3.733664 1.840609 3.770482 1.840609 3.801845 1.840609 3.828095 1.834018 3.849232 1.820836 3.870368 1.807655 3.8848 1.783336 3.892527 1.747882 3.893891 1.741973 3.89605 1.737882 3.899005 1.735609 3.901959 1.733336 3.905482 1.7322 3.909573 1.7322H3.947073C3.951164 1.7322 3.954686 1.73345 3.957641 1.73595 3.960595 1.73845 3.961845 1.741745 3.961391 1.745836 3.960482 1.764927 3.955936 1.783564 3.947755 1.801745 3.939573 1.819927 3.927641 1.836291 3.911959 1.850836 3.896277 1.865382 3.876618 1.876973 3.852982 1.885609 3.829345 1.894245 3.801845 1.898564 3.770482 1.898564M4.068447 1.891745C4.063447 1.891745 4.059583 1.890268 4.056856 1.887314 4.054129 1.884359 4.052765 1.880609 4.052765 1.876064V1.430836C4.052765 1.425836 4.054129 1.421859 4.056856 1.418905 4.059583 1.41595 4.063447 1.414473 4.068447 1.414473H4.350038C4.355038 1.414473 4.358902 1.41595 4.361629 1.418905 4.364356 1.421859 4.36572 1.425836 4.36572 1.430836V1.456745C4.36572 1.461745 4.364356 1.465609 4.361629 1.468336 4.358902 1.471064 4.355038 1.472427 4.350038 1.472427H4.11822V1.621745H4.335038C4.340038 1.621745 4.343902 1.623223 4.346629 1.626177 4.349356 1.629132 4.35072 1.633109 4.35072 1.638109V1.663336C4.35072 1.667882 4.349356 1.671632 4.346629 1.674586 4.343902 1.677541 4.340038 1.679018 4.335038 1.679018H4.11822V1.833791H4.355492C4.360492 1.833791 4.364356 1.835155 4.367083 1.837882 4.369811 1.840609 4.371174 1.844473 4.371174 1.849473V1.876064C4.371174 1.880609 4.369811 1.884359 4.367083 1.887314 4.364356 1.890268 4.360492 1.891745 4.355492 1.891745H4.068447M4.481641 1.891745C4.476641 1.891745 4.472778 1.890268 4.47005 1.887314 4.467323 1.884359 4.465959 1.880609 4.465959 1.876064V1.430836C4.465959 1.425836 4.467323 1.421859 4.47005 1.418905 4.472778 1.41595 4.476641 1.414473 4.481641 1.414473H4.513005C4.518459 1.414473 4.52255 1.415723 4.525278 1.418223 4.528005 1.420723 4.529596 1.422655 4.53005 1.424018L4.756414 1.771745V1.430836C4.756414 1.425836 4.757778 1.421859 4.760505 1.418905 4.763232 1.41595 4.767096 1.414473 4.772096 1.414473H4.804823C4.809823 1.414473 4.8138 1.41595 4.816755 1.418905 4.819709 1.421859 4.821187 1.425836 4.821187 1.430836V1.875382C4.821187 1.879927 4.819709 1.883791 4.816755 1.886973 4.8138 1.890155 4.81005 1.891745 4.805505 1.891745H4.772778C4.767778 1.891745 4.764028 1.890382 4.761528 1.887655 4.759028 1.884927 4.757323 1.883109 4.756414 1.8822L4.530732 1.537882V1.876064C4.530732 1.880609 4.529255 1.884359 4.5263 1.887314 4.523346 1.890268 4.519368 1.891745 4.514368 1.891745H4.481641M5.059828 1.891745C5.055283 1.891745 5.051533 1.890268 5.048578 1.887314 5.045623 1.884359 5.044146 1.880609 5.044146 1.876064V1.475155H4.913237C4.908692 1.475155 4.904942 1.473677 4.901987 1.470723 4.899033 1.467768 4.897555 1.464018 4.897555 1.459473V1.430836C4.897555 1.425836 4.899033 1.421859 4.901987 1.418905 4.904942 1.41595 4.908692 1.414473 4.913237 1.414473H5.241873C5.246873 1.414473 5.250851 1.41595 5.253805 1.418905 5.25676 1.421859 5.258237 1.425836 5.258237 1.430836V1.459473C5.258237 1.464018 5.25676 1.467768 5.253805 1.470723 5.250851 1.473677 5.246873 1.475155 5.241873 1.475155H5.111646V1.876064C5.111646 1.880609 5.110169 1.884359 5.107214 1.887314 5.10426 1.890268 5.100283 1.891745 5.095283 1.891745H5.059828M5.350269 1.891745C5.345269 1.891745 5.341405 1.890268 5.338678 1.887314 5.33595 1.884359 5.334587 1.880609 5.334587 1.876064V1.430836C5.334587 1.425836 5.33595 1.421859 5.338678 1.418905 5.341405 1.41595 5.345269 1.414473 5.350269 1.414473H5.516632C5.567996 1.414473 5.608678 1.426518 5.638678 1.450609 5.668678 1.4747 5.683678 1.510382 5.683678 1.557655 5.683678 1.592655 5.674928 1.621177 5.657428 1.643223 5.639928 1.665268 5.616178 1.680609 5.586178 1.689245L5.691178 1.870609C5.692541 1.873336 5.693223 1.875836 5.693223 1.878109 5.693223 1.881745 5.691746 1.884927 5.688791 1.887655 5.685837 1.890382 5.682541 1.891745 5.678905 1.891745H5.646178C5.63845 1.891745 5.632769 1.8897 5.629132 1.885609 5.625496 1.881518 5.622314 1.877427 5.619587 1.873336L5.520723 1.700155H5.401405V1.876064C5.401405 1.880609 5.399928 1.884359 5.396973 1.887314 5.394019 1.890268 5.390041 1.891745 5.385041 1.891745H5.350269M5.401405 1.6422H5.513905C5.547996 1.6422 5.57345 1.635041 5.590269 1.620723 5.607087 1.606405 5.615496 1.585155 5.615496 1.556973 5.615496 1.529245 5.6072 1.508109 5.590609 1.493564 5.574019 1.479018 5.54845 1.471745 5.513905 1.471745H5.401405V1.6422M5.796879 1.891745C5.791879 1.891745 5.788016 1.890268 5.785289 1.887314 5.782561 1.884359 5.781198 1.880609 5.781198 1.876064V1.430836C5.781198 1.425836 5.782561 1.421859 5.785289 1.418905 5.788016 1.41595 5.791879 1.414473 5.796879 1.414473H6.07847C6.08347 1.414473 6.087334 1.41595 6.090061 1.418905 6.092789 1.421859 6.094152 1.425836 6.094152 1.430836V1.456745C6.094152 1.461745 6.092789 1.465609 6.090061 1.468336 6.087334 1.471064 6.08347 1.472427 6.07847 1.472427H5.846652V1.621745H6.06347C6.06847 1.621745 6.072334 1.623223 6.075061 1.626177 6.077789 1.629132 6.079152 1.633109 6.079152 1.638109V1.663336C6.079152 1.667882 6.077789 1.671632 6.075061 1.674586 6.072334 1.677541 6.06847 1.679018 6.06347 1.679018H5.846652V1.833791H6.083925C6.088925 1.833791 6.092789 1.835155 6.095516 1.837882 6.098243 1.840609 6.099607 1.844473 6.099607 1.849473V1.876064C6.099607 1.880609 6.098243 1.884359 6.095516 1.887314 6.092789 1.890268 6.088925 1.891745 6.083925 1.891745H5.796879M6.347801 1.898564C6.308255 1.898564 6.275074 1.892427 6.248255 1.880155 6.221437 1.867882 6.200869 1.852086 6.186551 1.832768 6.172233 1.81345 6.164619 1.793109 6.16371 1.771745 6.16371 1.768109 6.165187 1.764814 6.168142 1.761859 6.171096 1.758905 6.174619 1.757427 6.17871 1.757427H6.213483C6.218937 1.757427 6.223028 1.758791 6.225755 1.761518 6.228483 1.764245 6.230301 1.767427 6.23121 1.771064 6.233937 1.781973 6.239619 1.792768 6.248255 1.80345 6.256892 1.814132 6.269278 1.822995 6.285414 1.830041 6.301551 1.837086 6.322346 1.840609 6.347801 1.840609 6.386892 1.840609 6.415642 1.833677 6.434051 1.819814 6.45246 1.80595 6.461664 1.787427 6.461664 1.764245 6.461664 1.748336 6.456778 1.735495 6.447005 1.725723 6.437233 1.71595 6.422346 1.7072 6.402346 1.699473 6.382346 1.691745 6.356437 1.683336 6.324619 1.674245 6.291437 1.6647 6.263937 1.654245 6.242119 1.642882 6.220301 1.631518 6.204051 1.617427 6.193369 1.600609 6.182687 1.583791 6.177346 1.562427 6.177346 1.536518 6.177346 1.511973 6.183937 1.490041 6.197119 1.470723 6.210301 1.451405 6.229392 1.436064 6.254392 1.4247 6.279392 1.413336 6.309392 1.407655 6.344392 1.407655 6.372574 1.407655 6.397233 1.411405 6.418369 1.418905 6.439505 1.426405 6.457119 1.436405 6.47121 1.448905 6.485301 1.461405 6.495983 1.474814 6.503255 1.489132 6.510528 1.50345 6.514392 1.517427 6.514846 1.531064 6.514846 1.534245 6.51371 1.537314 6.511437 1.540268 6.509164 1.543223 6.505528 1.5447 6.500528 1.5447H6.464392C6.46121 1.5447 6.457914 1.543791 6.454505 1.541973 6.451096 1.540155 6.448483 1.536745 6.446664 1.531745 6.443937 1.513109 6.433483 1.497427 6.415301 1.4847 6.397119 1.471973 6.373483 1.465609 6.344392 1.465609 6.314846 1.465609 6.290869 1.471291 6.27246 1.482655 6.254051 1.494018 6.244846 1.511745 6.244846 1.535836 6.244846 1.551291 6.249164 1.564132 6.257801 1.574359 6.266437 1.584586 6.280074 1.593564 6.29871 1.601291 6.317346 1.609018 6.341664 1.6172 6.371664 1.625836 6.408028 1.635836 6.437801 1.646405 6.460983 1.657541 6.484164 1.668677 6.501324 1.682541 6.51246 1.699132 6.523596 1.715723 6.529164 1.736973 6.529164 1.762882 6.529164 1.791518 6.521664 1.81595 6.506664 1.836177 6.491664 1.856405 6.470642 1.871859 6.443596 1.882541 6.416551 1.893223 6.384619 1.898564 6.347801 1.898564" fill="#006fbf"/>
</g>
</g>
</svg>
